<svg xmlns="http://www.w3.org/2000/svg" viewBox="0 0 180 180">
  <rect width="180" height="180" fill="#5856d6" rx="50" ry="50"/>
  <path d="M121 130c-2.5 3.7-5.1 7.4-9.2 7.4-4 0-5.3-2.4-9.9-2.4-4.6 0-6 2.3-9.8 2.5-3.9 0.1-6.9-4-9.4-7.6-5.1-7.4-9-20.9-3.8-30.1 2.6-4.6 7.3-7.4 12.4-7.5 3.9-0.1 7.5 2.6 9.9 2.6 2.4 0 6.8-3.2 11.4-2.7 1.9 0.1 7.4 0.8 10.9 5.9-0.3 0.2-6.5 3.8-6.5 11.4 0.1 9.1 8 12.1 8 12.1-0.1 0.2-1.2 4.3-4 8.4m-11.1-48c2.2-2.5 5.8-4.4 8.8-4.5 0.4 3.5-1 7.1-3.1 9.6-2.1 2.5-5.5 4.5-8.9 4.3-0.4-3.5 1.2-7.1 3.2-9.4" fill="white"/>
</svg> 